<svg xmlns="http://www.w3.org/2000/svg" xml:space="preserve" id="electronics" x="0" y="0" version="1.1" viewBox="0 0 24 24">
  <path fill="#303C42" d="M22 9h-1V7c0-1.103-.897-2-2-2h-2.793c-.59 0-1.144.23-1.56.646a1.2 1.2 0 0 1-.854.354h-3.586a1.2 1.2 0 0 1-.853-.354A2.192 2.192 0 0 0 7.793 5H5c-1.103 0-2 .897-2 2v2H2c-1.103 0-2 .897-2 2v7.5a.5.5 0 1 0 1 0V11c0-.551.449-1 1-1h1v2c0 1.103.897 2 2 2h2.793c.59 0 1.144-.23 1.56-.646a1.2 1.2 0 0 1 .854-.354h3.586a1.2 1.2 0 0 1 .853.354c.417.417.972.646 1.561.646H19c1.103 0 2-.897 2-2v-2h1c.551 0 1 .449 1 1v7.5a.5.5 0 1 0 1 0V11c0-1.103-.897-2-2-2z"></path>
  <path fill="#FFE082" d="M4 12V7c0-.551.449-1 1-1h1v7H5c-.551 0-1-.449-1-1z"></path>
  <path fill="#FF6F00" d="M7.793 13H7V6h.793a1.2 1.2 0 0 1 .853.354c.11.108.228.203.354.285v5.722a2.222 2.222 0 0 0-.354.285 1.2 1.2 0 0 1-.853.354z"></path>
  <path fill="#FFCA28" d="M10 12.02V6.98c.07.006.137.02.207.02H12v5h-1.793c-.07 0-.138.014-.207.02z"></path>
  <path fill="#FFE082" d="M20 12c0 .551-.449 1-1 1h-2.793a1.2 1.2 0 0 1-.853-.354A2.192 2.192 0 0 0 13.793 12H13V7h.793c.59 0 1.144-.23 1.56-.646A1.2 1.2 0 0 1 16.208 6H19c.551 0 1 .449 1 1v5z"></path>
  <path d="M5 13h1v-1H4c0 .551.449 1 1 1zM7 11.96V13h.793a1.2 1.2 0 0 0 .853-.354c.11-.108.228-.203.354-.285v-1.34c-.51.047-.986.258-1.354.625-.176.177-.405.27-.646.313zM10 12.02c.07-.006.137-.02.207-.02H12v-1h-2v1.02zM19 6v5c0 .551-.449 1-1 1h-2.793a1.2 1.2 0 0 1-.853-.354A2.183 2.183 0 0 0 13 11.02V12h.793c.59 0 1.144.23 1.56.646a1.2 1.2 0 0 0 .854.354H19c.551 0 1-.449 1-1V7c0-.551-.449-1-1-1z" opacity=".1"></path>
  <linearGradient id="SVGID_1_" x1="1.218" x2="24.017" y1="7.944" y2="18.575" gradientUnits="userSpaceOnUse">
    <stop offset="0" stop-color="#FFF" stop-opacity=".2"></stop>
    <stop offset="1" stop-color="#FFF" stop-opacity="0"></stop>
  </linearGradient>
  <path fill="url(#SVGID_1_)" d="M22 9h-1V7c0-1.103-.897-2-2-2h-2.793c-.59 0-1.144.23-1.56.646a1.2 1.2 0 0 1-.854.354h-3.586a1.2 1.2 0 0 1-.853-.354A2.192 2.192 0 0 0 7.793 5H5c-1.103 0-2 .897-2 2v2H2c-1.103 0-2 .897-2 2v7.5a.5.5 0 1 0 1 0V11c0-.551.449-1 1-1h1v2c0 1.103.897 2 2 2h2.793c.59 0 1.144-.23 1.56-.646a1.2 1.2 0 0 1 .854-.354h3.586a1.2 1.2 0 0 1 .853.354c.417.417.972.646 1.561.646H19c1.103 0 2-.897 2-2v-2h1c.551 0 1 .449 1 1v7.5a.5.5 0 1 0 1 0V11c0-1.103-.897-2-2-2z"></path>
</svg>
